<svg width="48" height="48" viewBox="0 0 48 48" fill="none" xmlns="http://www.w3.org/2000/svg">
<path d="M23.2602 38.2C22.42 38.022 21.6399 38.497 21.4599 39.3283C20.9199 41.5846 20.3197 43.7223 19.5997 45.7413C19.3597 46.5132 19.7197 47.3445 20.5599 47.6413C20.7399 47.7007 20.8599 47.7007 21.0399 47.7007C21.6399 47.7007 22.24 47.2851 22.48 46.6914C23.2002 44.613 23.8602 42.3567 24.4002 39.9814C24.5803 39.1501 24.0402 38.3782 23.2602 38.2Z" fill="#000AFF"/>
<path d="M26.5603 19.9707C26.5003 19.1392 25.7803 18.4861 25.0002 18.5455C24.1602 18.6049 23.5 19.258 23.56 20.0893C23.56 20.1487 23.8 26.2648 22.4799 34.2217C22.3599 35.053 22.9 35.8249 23.74 35.9437C23.8 35.9437 23.9202 35.9437 23.9802 35.9437C24.7002 35.9437 25.3603 35.4093 25.4803 34.6966C26.8005 26.3836 26.5603 20.2081 26.5603 19.9707Z" fill="#000AFF"/>
<path d="M44.5853 33.6821C44.6373 32.8502 44.0112 32.1082 43.2302 32.0647C42.3896 32.0131 41.6477 32.5738 41.5956 33.4057C41.5877 33.4645 41.0051 38.3704 38.6292 46.0834C38.3987 46.8916 38.8305 47.7277 39.6471 47.9557C39.7067 47.9636 39.8256 47.9794 39.885 47.9872C40.5987 48.0818 41.3247 47.6389 41.5392 46.9484C43.9629 38.8822 44.5535 33.9175 44.5853 33.6821Z" fill="#000AFF"/>
<path d="M37.9847 35.4845C38.0367 34.6527 37.4106 33.9107 36.6294 33.867C35.7888 33.8156 35.0469 34.3763 34.995 35.208C34.9869 35.267 34.1885 40.0409 32.6286 45.5106C32.3981 46.3188 32.8299 47.1549 33.6465 47.3829C33.7061 47.3909 33.825 47.4066 33.8844 47.4144C34.5983 47.5091 35.3241 47.0661 35.5386 46.3757C36.9534 41.8223 37.9527 35.72 37.9847 35.4845Z" fill="#000AFF"/>
<path d="M31.3008 23.1177C30.4608 23.1177 29.8006 23.7115 29.7406 24.5428C29.5606 29.6494 28.7205 37.5469 26.0802 45.9193C25.8402 46.6912 26.2602 47.5227 27.0403 47.7601C27.1603 47.8195 27.3403 47.8195 27.4603 47.8195C28.1205 47.8195 28.7205 47.4039 28.9005 46.7506C31.6608 38.0812 32.4409 29.9463 32.6809 24.6022C32.8009 23.8302 32.1409 23.1771 31.3008 23.1177Z" fill="#000AFF"/>
<path d="M24.9403 12.37C24.8803 12.37 24.7603 12.37 24.7003 12.37C22.66 12.4888 20.7398 13.3201 19.2997 14.8639C17.9195 16.3485 17.1994 18.3079 17.2594 20.3862C17.3194 21.6331 17.4394 32.8558 13.5389 43.9599C13.2389 44.7318 13.659 45.5631 14.4391 45.8599C14.6191 45.9193 14.7391 45.9193 14.9191 45.9193C15.5192 45.9193 16.1192 45.5631 16.3592 44.91C20.3197 33.5091 20.2597 22.4052 20.1997 20.2081C20.0797 17.5954 22.12 15.3984 24.7003 15.2796C27.4006 15.2202 29.5607 17.1798 29.6807 19.7925C29.7407 20.6238 30.4609 21.2769 31.2409 21.2175C32.081 21.1581 32.6812 20.505 32.6812 19.6737C32.621 15.5172 29.2007 12.37 24.9403 12.37Z" fill="#000AFF"/>
<path d="M14.019 20.4456C13.779 14.5077 18.5194 9.40108 24.5202 9.16355C30.6408 8.92604 35.7414 13.4983 36.0414 19.5549C36.0414 19.7331 36.2814 23.949 35.6814 30.2432C35.6214 31.0745 36.2214 31.7871 37.0015 31.8465C37.0615 31.8465 37.1215 31.8465 37.1215 31.8465C37.9017 31.8465 38.5617 31.2527 38.6217 30.4808C39.1617 25.2554 39.1017 20.9801 39.0417 19.3175C38.6817 11.7169 32.3209 5.95706 24.4002 6.19459C16.6593 6.55085 10.6586 13.0232 11.0186 20.6238V20.6832C11.0186 21.0989 11.0787 23.5928 10.7186 27.1556C10.6586 27.9869 11.2587 28.6994 12.0988 28.7588C12.9388 28.8182 13.6589 28.2243 13.7189 27.393C14.019 24.0678 14.079 21.2769 14.019 20.4456Z" fill="#000AFF"/>
<path d="M11.8588 30.837C11.0187 30.7184 10.2386 31.2527 10.1186 32.084C9.57854 35.2311 8.91847 38.1407 8.07838 40.8128C7.83835 41.5847 8.25839 42.4161 9.03848 42.6536C9.2185 42.713 9.33851 42.713 9.51853 42.713C10.1786 42.713 10.7187 42.2973 10.9587 41.7035C11.8588 38.9127 12.5789 35.825 13.1189 32.559C13.2389 31.7277 12.6989 30.9558 11.8588 30.837Z" fill="#000AFF"/>
<path d="M16.4193 5.18512C18.8196 3.8194 21.5199 3.04747 24.2802 2.9287C33.9412 2.51305 41.8621 9.69796 42.2821 19.258C42.3421 20.8018 42.4021 24.0084 42.1021 28.3431C42.0421 29.1744 42.6421 29.8869 43.4823 29.9463C43.5423 29.9463 43.5423 29.9463 43.6023 29.9463C44.3823 29.9463 45.0424 29.3526 45.1024 28.5805C45.4624 24.0678 45.4024 20.7426 45.3424 19.1392C44.8024 7.97596 35.5614 -0.455915 24.2202 0.0191201C20.9197 0.0784996 17.7394 1.02857 14.9191 2.63181C14.199 3.04747 13.959 3.93816 14.3791 4.65072C14.7991 5.36326 15.6991 5.60079 16.4193 5.18512Z" fill="#000AFF"/>
<path d="M12.7589 7.97601C13.3589 7.38222 13.3589 6.43216 12.7589 5.89774C12.1588 5.30395 11.1987 5.30395 10.6586 5.89774C6.69819 9.87615 4.53795 15.2796 4.77798 20.8019C4.77798 20.8613 4.95801 27.9275 3.03779 35.7062C2.85777 36.4781 3.33783 37.3094 4.11791 37.4876C4.23792 37.4876 4.35794 37.547 4.47795 37.547C5.13803 37.547 5.7981 37.0719 5.91812 36.4187C7.95834 28.1057 7.71831 20.6832 7.71831 20.6832C7.5983 15.9923 9.39849 11.3606 12.7589 7.97601Z" fill="#000AFF"/>
</svg>
