<svg width="80" height="71" viewBox="0 0 80 71" fill="none" xmlns="http://www.w3.org/2000/svg">
<path d="M33.7335 26.2911C34.3527 25.9253 35.1176 25.5984 36 25.3453L36 31.3635C35.1176 31.1105 34.3527 30.7836 33.7335 30.4178C32.2771 29.5575 32 28.7581 32 28.3544C32 27.9507 32.2771 27.1514 33.7335 26.2911Z" fill="white"/>
<path d="M44.0001 45.5407L44.0001 39.5226C44.8825 39.7756 45.6474 40.1025 46.2665 40.4683C47.723 41.3286 48.0001 42.128 48.0001 42.5316C48.0001 42.9354 47.723 43.7347 46.2666 44.595C45.6474 44.9608 44.8825 45.2877 44.0001 45.5407Z" fill="white"/>
<path fill-rule="evenodd" clip-rule="evenodd" d="M40 63.7975C57.6731 63.7975 72 51.1028 72 35.443C72 19.7833 57.6731 7.08861 40 7.08861C22.3269 7.08861 8 19.7833 8 35.443C8 51.1028 22.3269 63.7975 40 63.7975ZM44 17.7215C44 15.7641 42.2091 14.1772 40 14.1772C37.7909 14.1772 36 15.7641 36 17.7215V18.0476C33.5136 18.4613 31.2139 19.26 29.2959 20.393C26.4092 22.0982 24 24.8432 24 28.3544C24 31.8657 26.4092 34.6106 29.2959 36.3159C31.2139 37.4489 33.5136 38.2476 36.0001 38.6613L36.0001 45.5416C34.4361 45.0917 33.2767 44.4169 32.6267 43.7531C31.1789 42.2746 28.6525 42.1161 26.984 43.3989C25.3154 44.6818 25.1364 46.9203 26.5843 48.3988C28.8342 50.6964 32.2382 52.2106 36 52.8372L36 53.1645C36 55.122 37.7908 56.7088 39.9999 56.7089C42.2091 56.7089 44 55.1221 44 53.1646L44 52.8385C46.4864 52.4248 48.7862 51.6261 50.7042 50.4931C53.5909 48.7879 56.0001 46.0429 56.0001 42.5316C56.0001 39.0204 53.5908 36.2754 50.7041 34.5702C48.7861 33.4372 46.4864 32.6385 44 32.2248L44 25.3444C45.564 25.7944 46.7234 26.4692 47.3734 27.133C48.8212 28.6115 51.3476 28.77 53.0161 27.4871C54.6847 26.2043 54.8636 23.9657 53.4158 22.4873C51.1658 20.1897 47.7618 18.6755 44 18.0489V17.7215Z" fill="white"/>
</svg>
