<svg width="123" height="56" viewBox="0 0 123 56" fill="none" xmlns="http://www.w3.org/2000/svg">
<path d="M21.2207 1.40625V27H15.9473L5.66406 9.84375V27H0.390625V1.40625H5.66406L15.9648 18.5801V1.40625H21.2207ZM24.6836 17.6836V17.3145C24.6836 15.9199 24.8828 14.6367 25.2812 13.4648C25.6797 12.2812 26.2598 11.2559 27.0215 10.3887C27.7832 9.52148 28.7207 8.84766 29.834 8.36719C30.9473 7.875 32.2246 7.62891 33.666 7.62891C35.1074 7.62891 36.3906 7.875 37.5156 8.36719C38.6406 8.84766 39.584 9.52148 40.3457 10.3887C41.1191 11.2559 41.7051 12.2812 42.1035 13.4648C42.502 14.6367 42.7012 15.9199 42.7012 17.3145V17.6836C42.7012 19.0664 42.502 20.3496 42.1035 21.5332C41.7051 22.7051 41.1191 23.7305 40.3457 24.6094C39.584 25.4766 38.6465 26.1504 37.5332 26.6309C36.4199 27.1113 35.1426 27.3516 33.7012 27.3516C32.2598 27.3516 30.9766 27.1113 29.8516 26.6309C28.7383 26.1504 27.7949 25.4766 27.0215 24.6094C26.2598 23.7305 25.6797 22.7051 25.2812 21.5332C24.8828 20.3496 24.6836 19.0664 24.6836 17.6836ZM29.7461 17.3145V17.6836C29.7461 18.4805 29.8164 19.2246 29.957 19.916C30.0977 20.6074 30.3203 21.2168 30.625 21.7441C30.9414 22.2598 31.3516 22.6641 31.8555 22.957C32.3594 23.25 32.9746 23.3965 33.7012 23.3965C34.4043 23.3965 35.0078 23.25 35.5117 22.957C36.0156 22.6641 36.4199 22.2598 36.7246 21.7441C37.0293 21.2168 37.252 20.6074 37.3926 19.916C37.5449 19.2246 37.6211 18.4805 37.6211 17.6836V17.3145C37.6211 16.541 37.5449 15.8145 37.3926 15.1348C37.252 14.4434 37.0234 13.834 36.707 13.3066C36.4023 12.7676 35.998 12.3457 35.4941 12.041C34.9902 11.7363 34.3809 11.584 33.666 11.584C32.9512 11.584 32.3418 11.7363 31.8379 12.041C31.3457 12.3457 30.9414 12.7676 30.625 13.3066C30.3203 13.834 30.0977 14.4434 29.957 15.1348C29.8164 15.8145 29.7461 16.541 29.7461 17.3145ZM31.2402 5.41406L34.6855 0H40.1875L35.3535 5.41406H31.2402ZM50.875 11.918V27H45.7949V7.98047H50.5586L50.875 11.918ZM50.1719 16.8223H48.7656C48.7656 15.498 48.9238 14.2793 49.2402 13.166C49.5684 12.041 50.043 11.0684 50.6641 10.248C51.2969 9.41602 52.0762 8.77148 53.002 8.31445C53.9277 7.85742 55 7.62891 56.2188 7.62891C57.0625 7.62891 57.8359 7.75781 58.5391 8.01562C59.2422 8.26172 59.8457 8.6543 60.3496 9.19336C60.8652 9.7207 61.2637 10.4121 61.5449 11.2676C61.8262 12.1113 61.9668 13.125 61.9668 14.3086V27H56.9043V14.8711C56.9043 14.0039 56.7871 13.3359 56.5527 12.8672C56.3184 12.3984 55.9844 12.0703 55.5508 11.8828C55.1289 11.6953 54.6191 11.6016 54.0215 11.6016C53.3652 11.6016 52.791 11.7363 52.2988 12.0059C51.8184 12.2754 51.4199 12.6504 51.1035 13.1309C50.7871 13.5996 50.5527 14.1504 50.4004 14.7832C50.248 15.416 50.1719 16.0957 50.1719 16.8223ZM61.4922 16.2422L59.6816 16.4707C59.6816 15.2285 59.834 14.0742 60.1387 13.0078C60.4551 11.9414 60.918 11.0039 61.5273 10.1953C62.1484 9.38672 62.916 8.75977 63.8301 8.31445C64.7441 7.85742 65.7988 7.62891 66.9941 7.62891C67.9082 7.62891 68.7402 7.76367 69.4902 8.0332C70.2402 8.29102 70.8789 8.70703 71.4062 9.28125C71.9453 9.84375 72.3555 10.582 72.6367 11.4961C72.9297 12.4102 73.0762 13.5293 73.0762 14.8535V27H67.9961V14.8535C67.9961 13.9746 67.8789 13.3066 67.6445 12.8496C67.4219 12.3809 67.0938 12.0586 66.6602 11.8828C66.2383 11.6953 65.7344 11.6016 65.1484 11.6016C64.5391 11.6016 64.0059 11.7246 63.5488 11.9707C63.0918 12.2051 62.7109 12.5332 62.4062 12.9551C62.1016 13.377 61.873 13.8691 61.7207 14.4316C61.5684 14.9824 61.4922 15.5859 61.4922 16.2422ZM82.3398 7.98047V27H77.2598V7.98047H82.3398ZM76.9434 3.02344C76.9434 2.28516 77.2012 1.67578 77.7168 1.19531C78.2324 0.714844 78.9238 0.474609 79.791 0.474609C80.6465 0.474609 81.332 0.714844 81.8477 1.19531C82.375 1.67578 82.6387 2.28516 82.6387 3.02344C82.6387 3.76172 82.375 4.37109 81.8477 4.85156C81.332 5.33203 80.6465 5.57227 79.791 5.57227C78.9238 5.57227 78.2324 5.33203 77.7168 4.85156C77.2012 4.37109 76.9434 3.76172 76.9434 3.02344ZM91.4805 12.041V27H86.418V7.98047H91.1641L91.4805 12.041ZM90.7422 16.8223H89.3711C89.3711 15.416 89.5527 14.1504 89.916 13.0254C90.2793 11.8887 90.7891 10.9219 91.4453 10.125C92.1016 9.31641 92.8809 8.70117 93.7832 8.2793C94.6973 7.8457 95.7168 7.62891 96.8418 7.62891C97.7324 7.62891 98.5469 7.75781 99.2852 8.01562C100.023 8.27344 100.656 8.68359 101.184 9.24609C101.723 9.80859 102.133 10.5527 102.414 11.4785C102.707 12.4043 102.854 13.5352 102.854 14.8711V27H97.7559V14.8535C97.7559 14.0098 97.6387 13.3535 97.4043 12.8848C97.1699 12.416 96.8242 12.0879 96.3672 11.9004C95.9219 11.7012 95.3711 11.6016 94.7148 11.6016C94.0352 11.6016 93.4434 11.7363 92.9395 12.0059C92.4473 12.2754 92.0371 12.6504 91.709 13.1309C91.3926 13.5996 91.1523 14.1504 90.9883 14.7832C90.8242 15.416 90.7422 16.0957 90.7422 16.8223ZM116.969 22.7109V14.2383C116.969 13.6289 116.869 13.1074 116.67 12.6738C116.471 12.2285 116.16 11.8828 115.738 11.6367C115.328 11.3906 114.795 11.2676 114.139 11.2676C113.576 11.2676 113.09 11.3672 112.68 11.5664C112.27 11.7539 111.953 12.0293 111.73 12.3926C111.508 12.7441 111.396 13.1602 111.396 13.6406H106.334C106.334 12.832 106.521 12.0645 106.896 11.3379C107.271 10.6113 107.816 9.97266 108.531 9.42188C109.246 8.85938 110.096 8.41992 111.08 8.10352C112.076 7.78711 113.189 7.62891 114.42 7.62891C115.896 7.62891 117.209 7.875 118.357 8.36719C119.506 8.85938 120.408 9.59766 121.064 10.582C121.732 11.5664 122.066 12.7969 122.066 14.2734V22.4121C122.066 23.4551 122.131 24.3105 122.26 24.9785C122.389 25.6348 122.576 26.209 122.822 26.7012V27H117.707C117.461 26.4844 117.273 25.8398 117.145 25.0664C117.027 24.2812 116.969 23.4961 116.969 22.7109ZM117.637 15.416L117.672 18.2812H114.842C114.174 18.2812 113.594 18.3574 113.102 18.5098C112.609 18.6621 112.205 18.8789 111.889 19.1602C111.572 19.4297 111.338 19.7461 111.186 20.1094C111.045 20.4727 110.975 20.8711 110.975 21.3047C110.975 21.7383 111.074 22.1309 111.273 22.4824C111.473 22.8223 111.76 23.0918 112.135 23.291C112.51 23.4785 112.949 23.5723 113.453 23.5723C114.215 23.5723 114.877 23.4199 115.439 23.1152C116.002 22.8105 116.436 22.4355 116.74 21.9902C117.057 21.5449 117.221 21.123 117.232 20.7246L118.568 22.8691C118.381 23.3496 118.123 23.8477 117.795 24.3633C117.479 24.8789 117.074 25.3652 116.582 25.8223C116.09 26.2676 115.498 26.6367 114.807 26.9297C114.115 27.2109 113.295 27.3516 112.346 27.3516C111.139 27.3516 110.043 27.1113 109.059 26.6309C108.086 26.1387 107.312 25.4648 106.738 24.6094C106.176 23.7422 105.895 22.7578 105.895 21.6562C105.895 20.6602 106.082 19.7754 106.457 19.002C106.832 18.2285 107.383 17.5781 108.109 17.0508C108.848 16.5117 109.768 16.1074 110.869 15.8379C111.971 15.5566 113.248 15.416 114.701 15.416H117.637ZM65.2305 53.3359L70.9609 37.9375H71.6523L65.2773 55H64.6797L65.2305 53.3359ZM58.8203 37.9375L64.5508 53.3359L65.1016 55H64.5039L58.1289 37.9375H58.8203ZM74.8633 42.3203V55H74.2305V42.3203H74.8633ZM73.9023 38.3594C73.9023 38.1797 73.9648 38.0273 74.0898 37.9023C74.2148 37.7695 74.3672 37.7031 74.5469 37.7031C74.7266 37.7031 74.8789 37.7695 75.0039 37.9023C75.1367 38.0273 75.2031 38.1797 75.2031 38.3594C75.2031 38.5391 75.1367 38.6914 75.0039 38.8164C74.8789 38.9414 74.7266 39.0039 74.5469 39.0039C74.3672 39.0039 74.2148 38.9414 74.0898 38.8164C73.9648 38.6914 73.9023 38.5391 73.9023 38.3594ZM79.6562 44.5234V55H79.0234V42.3203H79.6562V44.5234ZM84.6836 42.2148L84.6133 42.7773C84.4883 42.7617 84.3555 42.7461 84.2148 42.7305C84.082 42.7148 83.9414 42.707 83.793 42.707C83.082 42.707 82.457 42.8516 81.918 43.1406C81.3867 43.4297 80.9414 43.8281 80.582 44.3359C80.2305 44.8438 79.9648 45.4297 79.7852 46.0938C79.6133 46.75 79.5273 47.4531 79.5273 48.2031L79.1055 48.2383C79.1055 47.3477 79.1992 46.5273 79.3867 45.7773C79.582 45.0273 79.8711 44.3789 80.2539 43.832C80.6445 43.2773 81.1328 42.8477 81.7188 42.543C82.3125 42.2383 83.0039 42.0859 83.793 42.0859C83.9883 42.0859 84.1602 42.0977 84.3086 42.1211C84.457 42.1445 84.582 42.1758 84.6836 42.2148ZM91.9492 42.3203V42.9648H86.0781V42.3203H91.9492ZM88.4219 38.8984H89.0664V51.9648C89.0664 52.707 89.1523 53.2695 89.3242 53.6523C89.5039 54.0273 89.7383 54.2812 90.0273 54.4141C90.3242 54.5391 90.6406 54.6016 90.9766 54.6016C91.2188 54.6016 91.4336 54.5938 91.6211 54.5781C91.8086 54.5547 92.0117 54.5273 92.2305 54.4961L92.3359 55.0938C92.1641 55.1484 91.9414 55.1836 91.668 55.1992C91.3945 55.2227 91.1758 55.2344 91.0117 55.2344C90.4727 55.2344 90.0078 55.1406 89.6172 54.9531C89.2344 54.7578 88.9375 54.4219 88.7266 53.9453C88.5234 53.4688 88.4219 52.8086 88.4219 51.9648V38.8984ZM103.738 52.0703V42.3203H104.383V55H103.738V52.0703ZM103.844 50.043L104.383 50.0195C104.383 50.7695 104.285 51.4609 104.09 52.0938C103.895 52.7266 103.594 53.2812 103.188 53.7578C102.781 54.2266 102.262 54.5898 101.629 54.8477C100.996 55.1055 100.242 55.2344 99.3672 55.2344C98.75 55.2344 98.1836 55.1484 97.668 54.9766C97.1602 54.7969 96.7188 54.5156 96.3438 54.1328C95.9766 53.75 95.6914 53.25 95.4883 52.6328C95.293 52.0078 95.1953 51.2539 95.1953 50.3711V42.3203H95.8281V50.3945C95.8281 51.168 95.9141 51.8242 96.0859 52.3633C96.2656 52.9023 96.5117 53.3359 96.8242 53.6641C97.1445 53.9922 97.5156 54.2305 97.9375 54.3789C98.3672 54.5273 98.8359 54.6016 99.3438 54.6016C100.484 54.6016 101.383 54.3828 102.039 53.9453C102.695 53.5078 103.16 52.9414 103.434 52.2461C103.707 51.543 103.844 50.8086 103.844 50.043ZM116.348 52.6211V46.0703C116.348 45.3672 116.195 44.7656 115.891 44.2656C115.594 43.7656 115.156 43.3828 114.578 43.1172C114.008 42.8516 113.309 42.7188 112.48 42.7188C111.715 42.7188 111.023 42.8555 110.406 43.1289C109.797 43.3945 109.312 43.7617 108.953 44.2305C108.602 44.6992 108.426 45.2266 108.426 45.8125L107.793 45.7891C107.793 45.2969 107.906 44.8281 108.133 44.3828C108.367 43.9375 108.691 43.543 109.105 43.1992C109.527 42.8555 110.023 42.5859 110.594 42.3906C111.172 42.1875 111.801 42.0859 112.48 42.0859C113.363 42.0859 114.141 42.2344 114.812 42.5312C115.492 42.8281 116.023 43.2734 116.406 43.8672C116.789 44.4609 116.98 45.2031 116.98 46.0938V52.4453C116.98 52.8984 117.008 53.3555 117.062 53.8164C117.125 54.2773 117.207 54.6367 117.309 54.8945V55H116.582C116.504 54.6953 116.445 54.3281 116.406 53.8984C116.367 53.4609 116.348 53.0352 116.348 52.6211ZM116.629 47.9219L116.652 48.5664H113.348C112.527 48.5664 111.793 48.6484 111.145 48.8125C110.496 48.9688 109.945 49.1914 109.492 49.4805C109.039 49.7695 108.691 50.1133 108.449 50.5117C108.207 50.9102 108.086 51.3516 108.086 51.8359C108.086 52.3438 108.223 52.8086 108.496 53.2305C108.777 53.6523 109.164 53.9883 109.656 54.2383C110.148 54.4883 110.715 54.6133 111.355 54.6133C112.246 54.6133 113.035 54.4688 113.723 54.1797C114.41 53.8828 114.992 53.4688 115.469 52.9375C115.945 52.4062 116.309 51.7773 116.559 51.0508L116.84 51.6367C116.691 52.0742 116.469 52.5078 116.172 52.9375C115.883 53.3594 115.512 53.7461 115.059 54.0977C114.605 54.4414 114.07 54.7188 113.453 54.9297C112.844 55.1328 112.145 55.2344 111.355 55.2344C110.566 55.2344 109.879 55.0898 109.293 54.8008C108.707 54.5039 108.254 54.0977 107.934 53.582C107.613 53.0586 107.453 52.4609 107.453 51.7891C107.453 51.2266 107.586 50.7109 107.852 50.2422C108.117 49.7656 108.5 49.3555 109 49.0117C109.508 48.6602 110.125 48.3906 110.852 48.2031C111.578 48.0156 112.398 47.9219 113.312 47.9219H116.629ZM121.855 37V55H121.223V37H121.855Z" fill="white"/>
</svg>
